<mxfile host="app.diagrams.net" agent="Mozilla/5.0 (Windows NT 10.0; Win64; x64) AppleWebKit/537.36 (KHTML, like Gecko) Chrome/137.0.0.0 Safari/537.36" version="27.1.4">
  <diagram name="Страница-1" id="wp2WkOgq6ReVjoDdo7Tv">
    <mxGraphModel dx="1097" dy="693" grid="1" gridSize="10" guides="1" tooltips="1" connect="1" arrows="1" fold="1" page="1" pageScale="1" pageWidth="827" pageHeight="1169" math="0" shadow="0">
      <root>
        <mxCell id="0" />
        <mxCell id="1" parent="0" />
        <mxCell id="RhLyxcFmZCTHpihehpmR-1" value="" style="verticalLabelPosition=bottom;verticalAlign=top;html=1;shadow=0;dashed=0;strokeWidth=1;shape=mxgraph.android.phone2;strokeColor=#c0c0c0;fillColor=#1A1A1A;" parent="1" vertex="1">
          <mxGeometry x="145" y="40" width="70" height="130" as="geometry" />
        </mxCell>
        <mxCell id="RhLyxcFmZCTHpihehpmR-2" value="User device&lt;div&gt;&lt;br&gt;&lt;/div&gt;" style="text;html=1;align=center;verticalAlign=middle;whiteSpace=wrap;rounded=0;" parent="1" vertex="1">
          <mxGeometry x="150" y="180" width="60" height="30" as="geometry" />
        </mxCell>
        <mxCell id="RhLyxcFmZCTHpihehpmR-3" value="&lt;br&gt;&lt;b&gt;Flutter App(UI)&lt;/b&gt;" style="html=1;align=center;verticalAlign=middle;dashed=0;whiteSpace=wrap;" parent="1" vertex="1">
          <mxGeometry x="90" y="210" width="180" height="60" as="geometry" />
        </mxCell>
        <mxCell id="RhLyxcFmZCTHpihehpmR-4" value="" style="rounded=0;whiteSpace=wrap;html=1;" parent="1" vertex="1">
          <mxGeometry x="50" y="690" width="661" height="290" as="geometry" />
        </mxCell>
        <mxCell id="RhLyxcFmZCTHpihehpmR-5" value="&lt;font style=&quot;font-size: 21px;&quot;&gt;Firebase Cloud&lt;/font&gt;" style="text;html=1;align=center;verticalAlign=middle;whiteSpace=wrap;rounded=0;" parent="1" vertex="1">
          <mxGeometry x="140.5" y="630" width="176" height="30" as="geometry" />
        </mxCell>
        <mxCell id="RhLyxcFmZCTHpihehpmR-11" value="" style="whiteSpace=wrap;html=1;aspect=fixed;" parent="1" vertex="1">
          <mxGeometry x="93" y="747.5" width="175" height="175" as="geometry" />
        </mxCell>
        <mxCell id="RhLyxcFmZCTHpihehpmR-16" value="" style="whiteSpace=wrap;html=1;aspect=fixed;" parent="1" vertex="1">
          <mxGeometry x="295" y="747.5" width="175" height="175" as="geometry" />
        </mxCell>
        <mxCell id="RhLyxcFmZCTHpihehpmR-17" value="" style="whiteSpace=wrap;html=1;aspect=fixed;" parent="1" vertex="1">
          <mxGeometry x="500.5" y="747.5" width="175" height="175" as="geometry" />
        </mxCell>
        <mxCell id="RhLyxcFmZCTHpihehpmR-8" value="&lt;font style=&quot;font-size: 16px;&quot;&gt;Firebase Auth&lt;/font&gt;" style="text;html=1;align=left;verticalAlign=middle;whiteSpace=wrap;rounded=0;" parent="1" vertex="1">
          <mxGeometry x="115.5" y="780" width="115" height="30" as="geometry" />
        </mxCell>
        <mxCell id="RhLyxcFmZCTHpihehpmR-9" value="&lt;font style=&quot;font-size: 14px;&quot;&gt;-Login/Register&lt;/font&gt;" style="text;html=1;align=left;verticalAlign=middle;whiteSpace=wrap;rounded=0;" parent="1" vertex="1">
          <mxGeometry x="115.5" y="810" width="115" height="30" as="geometry" />
        </mxCell>
        <mxCell id="RhLyxcFmZCTHpihehpmR-10" value="&lt;font style=&quot;font-size: 14px;&quot;&gt;-Tokens&lt;/font&gt;" style="text;html=1;align=left;verticalAlign=middle;whiteSpace=wrap;rounded=0;" parent="1" vertex="1">
          <mxGeometry x="115.5" y="840" width="115" height="30" as="geometry" />
        </mxCell>
        <mxCell id="RhLyxcFmZCTHpihehpmR-12" value="&lt;span style=&quot;font-size: 16px;&quot;&gt;Firestore Datbase&lt;/span&gt;" style="text;html=1;align=left;verticalAlign=middle;whiteSpace=wrap;rounded=0;" parent="1" vertex="1">
          <mxGeometry x="308.5" y="780" width="160" height="30" as="geometry" />
        </mxCell>
        <mxCell id="RhLyxcFmZCTHpihehpmR-13" value="&lt;font style=&quot;font-size: 14px;&quot;&gt;- Messages&lt;/font&gt;" style="text;html=1;align=left;verticalAlign=middle;whiteSpace=wrap;rounded=0;" parent="1" vertex="1">
          <mxGeometry x="308.5" y="810" width="160" height="30" as="geometry" />
        </mxCell>
        <mxCell id="RhLyxcFmZCTHpihehpmR-14" value="&lt;font style=&quot;font-size: 14px;&quot;&gt;- Users&lt;/font&gt;" style="text;html=1;align=left;verticalAlign=middle;whiteSpace=wrap;rounded=0;" parent="1" vertex="1">
          <mxGeometry x="308.5" y="840" width="160" height="30" as="geometry" />
        </mxCell>
        <mxCell id="RhLyxcFmZCTHpihehpmR-18" value="&lt;font style=&quot;font-size: 16px;&quot;&gt;Storage&lt;/font&gt;" style="text;html=1;align=left;verticalAlign=middle;whiteSpace=wrap;rounded=0;" parent="1" vertex="1">
          <mxGeometry x="525.5" y="780" width="70" height="30" as="geometry" />
        </mxCell>
        <mxCell id="RhLyxcFmZCTHpihehpmR-19" value="&lt;font style=&quot;font-size: 14px;&quot;&gt;- Images&lt;/font&gt;" style="text;html=1;align=left;verticalAlign=middle;whiteSpace=wrap;rounded=0;" parent="1" vertex="1">
          <mxGeometry x="525.5" y="810" width="60" height="30" as="geometry" />
        </mxCell>
        <mxCell id="RhLyxcFmZCTHpihehpmR-20" value="&lt;font style=&quot;font-size: 20px;&quot;&gt;&amp;lt;====&amp;gt;&lt;/font&gt;" style="text;html=1;align=center;verticalAlign=middle;whiteSpace=wrap;rounded=0;" parent="1" vertex="1">
          <mxGeometry x="330" y="100" width="60" height="30" as="geometry" />
        </mxCell>
        <mxCell id="RhLyxcFmZCTHpihehpmR-23" value="&lt;font style=&quot;font-size: 50px;&quot;&gt;↓&lt;/font&gt;" style="text;html=1;align=center;verticalAlign=middle;whiteSpace=wrap;rounded=0;" parent="1" vertex="1">
          <mxGeometry x="140.5" y="290" width="80" height="50" as="geometry" />
        </mxCell>
        <mxCell id="RhLyxcFmZCTHpihehpmR-24" value="&lt;font style=&quot;font-size: 20px;&quot;&gt;HTTPS Requests&lt;/font&gt;" style="text;html=1;align=center;verticalAlign=middle;whiteSpace=wrap;rounded=0;" parent="1" vertex="1">
          <mxGeometry x="460" y="100" width="164.5" height="30" as="geometry" />
        </mxCell>
        <mxCell id="RhLyxcFmZCTHpihehpmR-25" value="&lt;font style=&quot;font-size: 16px; color: rgb(145, 145, 145);&quot;&gt;(Firebase SDK/API)&lt;/font&gt;" style="text;html=1;align=center;verticalAlign=middle;whiteSpace=wrap;rounded=0;" parent="1" vertex="1">
          <mxGeometry x="460" y="130" width="160" height="30" as="geometry" />
        </mxCell>
        <mxCell id="sVtD4CXlR_Q_oRyBF8Cu-1" value="" style="rounded=0;whiteSpace=wrap;html=1;" vertex="1" parent="1">
          <mxGeometry x="93" y="410" width="299.5" height="120" as="geometry" />
        </mxCell>
        <mxCell id="sVtD4CXlR_Q_oRyBF8Cu-2" value="&lt;font style=&quot;font-size: 50px;&quot;&gt;↓&lt;/font&gt;" style="text;html=1;align=center;verticalAlign=middle;whiteSpace=wrap;rounded=0;" vertex="1" parent="1">
          <mxGeometry x="190" y="550" width="80" height="50" as="geometry" />
        </mxCell>
        <mxCell id="sVtD4CXlR_Q_oRyBF8Cu-3" value="&lt;font style=&quot;font-size: 21px;&quot;&gt;Docker Container&lt;/font&gt;" style="text;html=1;align=center;verticalAlign=middle;whiteSpace=wrap;rounded=0;" vertex="1" parent="1">
          <mxGeometry x="110" y="360" width="180" height="30" as="geometry" />
        </mxCell>
        <mxCell id="sVtD4CXlR_Q_oRyBF8Cu-4" value="" style="rounded=1;whiteSpace=wrap;html=1;" vertex="1" parent="1">
          <mxGeometry x="132.75" y="430" width="220" height="80" as="geometry" />
        </mxCell>
        <mxCell id="sVtD4CXlR_Q_oRyBF8Cu-5" value="&lt;font style=&quot;font-size: 17px;&quot;&gt;NGINX server&lt;/font&gt;&lt;div&gt;&lt;font style=&quot;font-size: 17px;&quot;&gt;+ Flutter web&lt;/font&gt;&lt;/div&gt;" style="text;html=1;align=center;verticalAlign=middle;whiteSpace=wrap;rounded=0;" vertex="1" parent="1">
          <mxGeometry x="145" y="455" width="150" height="30" as="geometry" />
        </mxCell>
      </root>
    </mxGraphModel>
  </diagram>
</mxfile>
